<?xml version="1.0" encoding="iso-8859-1"?>
<!-- Uploaded to: SVG Repo, www.svgrepo.com, Generator: SVG Repo Mixer Tools -->
<svg version="1.1" id="Layer_1" xmlns="http://www.w3.org/2000/svg" xmlns:xlink="http://www.w3.org/1999/xlink" 
	 viewBox="0 0 512 512" xml:space="preserve">
<rect x="8.342" y="83.422" style="fill:#75C0C7;" width="495.316" height="39.625"/>
<rect x="8.342" y="83.422" style="fill:#589095;" width="135.56" height="39.625"/>
<path style="fill:#FCBB3B;" d="M15.642,123.047v23.984h16.684v280.505h447.348V147.031h16.684v-23.984H15.642z M344.114,403.552
	H71.951v-191.87h272.163V403.552z"/>
<rect x="31.999" y="155.54" style="fill:#BD8C2C;" width="95.997" height="271.996"/>
<polygon style="fill:#E0DCCD;" points="496.358,123.047 15.642,123.047 15.642,147.031 39.625,147.031 39.625,155.373 
	472.375,155.373 472.375,147.031 496.358,147.031 "/>
<polygon style="fill:#A8A59A;" points="136.603,123.047 15.642,123.047 15.642,147.031 31.283,147.031 31.283,155.373 
	136.603,155.373 "/>
<rect x="376.002" y="251.537" style="fill:#75C0C7;" width="63.995" height="31.999"/>
<rect x="376.002" y="251.537" style="fill:#589095;" width="24.005" height="31.999"/>
<rect x="72.003" y="403.542" style="fill:#FFFFFF;" width="271.996" height="24.005"/>
<rect x="376.002" y="307.534" style="fill:#E0DCCD;" width="63.995" height="120.002"/>
<rect x="376.002" y="307.534" style="fill:#A8A59A;" width="24.005" height="120.002"/>
<rect x="72.003" y="211.536" style="fill:#4BAF78;" width="271.996" height="191.995"/>
<g>
	<rect x="72.003" y="211.536" style="fill:#1E834E;" width="271.996" height="24.005"/>
	<rect x="72.003" y="259.535" style="fill:#1E834E;" width="271.996" height="24.005"/>
	<rect x="72.003" y="307.534" style="fill:#1E834E;" width="271.996" height="24.005"/>
	<rect x="72.003" y="355.532" style="fill:#1E834E;" width="271.996" height="24.005"/>
</g>
<rect x="104.277" y="347.242" width="207.511" height="15.642"/>
<rect x="104.277" y="371.226" width="207.511" height="15.642"/>
<rect x="104.277" y="323.259" width="207.511" height="15.642"/>
<rect x="104.277" y="299.275" width="207.511" height="15.642"/>
<rect x="104.277" y="275.291" width="207.511" height="15.642"/>
<rect x="104.277" y="251.308" width="207.511" height="15.642"/>
<rect x="104.277" y="227.324" width="207.511" height="15.642"/>
<rect x="111.576" y="395.21" width="16.684" height="15.642"/>
<rect x="135.56" y="395.21" width="144.945" height="15.642"/>
<rect x="287.805" y="395.21" width="16.684" height="15.642"/>
<rect x="392.081" y="363.927" width="15.642" height="15.642"/>
<rect x="80.293" y="148.073" width="351.413" height="15.642"/>
<path d="M488.016,420.236V155.373h8.342v-15.642h-23.984v8.342h-23.984v15.642h23.984v256.521h-25.026V299.275h-79.251v120.961
	h-16.279v-216.52H64.178v216.52H39.625V163.715h23.984v-15.642H39.625v-8.342H15.642v15.642h8.342v264.864H0v15.642h512v-15.642
	H488.016z M383.739,314.917h47.967v105.32h-47.967V314.917z M79.82,410.851h24.457V395.21H79.82v-8.342h16.115v-15.642H79.82v-8.342
	h16.115v-15.642H79.82V338.9h16.115v-15.642H79.82v-8.342h16.115v-15.642H79.82v-8.342h16.115v-15.642H79.82v-8.342h16.115v-15.642
	H79.82v-8.342h16.115v-15.642H79.82v-7.966h256.357v7.966H320.13v15.642h16.047v8.342H320.13v15.642h16.047v8.342H320.13v15.642
	h16.047v8.342H320.13v15.642h16.047v8.342H320.13V338.9h16.047v8.342H320.13v15.642h16.047v8.342H320.13v15.642h16.047v8.342
	h-24.389v15.642h24.389v9.385H79.82V410.851z"/>
<path d="M447.818,291.357h-79.642v-47.641h79.642V291.357z M383.819,275.716h48.358v-16.358h-48.358V275.716z"/>
<path d="M512,131.389H0V76.122h512V131.389z M15.642,115.747h480.717V91.764H15.642V115.747z"/>
</svg>