<?xml version="1.0" encoding="utf-8"?>
<!-- Uploaded to: SVG Repo, www.svgrepo.com, Generator: SVG Repo Mixer Tools -->
<svg width="800px" height="800px" viewBox="0 0 1024 1024" class="icon"  version="1.1" xmlns="http://www.w3.org/2000/svg"><path d="M819.2 793.6c0 14.08-11.52 25.6-25.6 25.6H230.4c-14.08 0-25.6-11.52-25.6-25.6V358.4c0-14.08 11.52-25.6 25.6-25.6h563.2c14.08 0 25.6 11.52 25.6 25.6v435.2z" fill="#A7BFB7" /><path d="M793.6 832H230.4c-21.76 0-38.4-16.64-38.4-38.4V358.4c0-21.76 16.64-38.4 38.4-38.4h563.2c21.76 0 38.4 16.64 38.4 38.4v435.2c0 21.76-17.92 38.4-38.4 38.4zM230.4 345.6c-7.68 0-12.8 5.12-12.8 12.8v435.2c0 7.68 5.12 12.8 12.8 12.8h563.2c7.68 0 12.8-5.12 12.8-12.8V358.4c0-7.68-5.12-12.8-12.8-12.8H230.4z" fill="#231C1C" /><path d="M844.8 435.2c0 14.08-11.52 25.6-25.6 25.6H204.8c-14.08 0-25.6-11.52-25.6-25.6v-102.4c0-14.08 11.52-25.6 25.6-25.6h614.4c14.08 0 25.6 11.52 25.6 25.6v102.4z" fill="#A7BFB7" /><path d="M819.2 473.6H204.8c-21.76 0-38.4-16.64-38.4-38.4v-102.4c0-21.76 16.64-38.4 38.4-38.4h614.4c21.76 0 38.4 16.64 38.4 38.4v102.4c0 21.76-17.92 38.4-38.4 38.4zM204.8 320c-7.68 0-12.8 5.12-12.8 12.8v102.4c0 7.68 5.12 12.8 12.8 12.8h614.4c7.68 0 12.8-5.12 12.8-12.8v-102.4c0-7.68-5.12-12.8-12.8-12.8H204.8z" fill="#231C1C" /><path d="M627.2 537.6c0 14.08-11.52 25.6-25.6 25.6H435.2c-14.08 0-25.6-11.52-25.6-25.6s11.52-25.6 25.6-25.6h166.4c14.08 0 25.6 11.52 25.6 25.6z" fill="#E1E0A6" /><path d="M601.6 576H435.2c-21.76 0-38.4-16.64-38.4-38.4s16.64-38.4 38.4-38.4h166.4c21.76 0 38.4 16.64 38.4 38.4s-17.92 38.4-38.4 38.4z m-166.4-51.2c-7.68 0-12.8 5.12-12.8 12.8s5.12 12.8 12.8 12.8h166.4c7.68 0 12.8-5.12 12.8-12.8s-5.12-12.8-12.8-12.8H435.2z" fill="#231C1C" /></svg>