<?xml version="1.0" encoding="iso-8859-1"?>
<!-- Uploaded to: SVG Repo, www.svgrepo.com, Generator: SVG Repo Mixer Tools -->
<svg height="800px" width="800px" version="1.1" id="Layer_1" xmlns="http://www.w3.org/2000/svg" xmlns:xlink="http://www.w3.org/1999/xlink" 
	 viewBox="0 0 512 512" xml:space="preserve">
<polyline style="fill:#E6E6E6;" points="436.694,59.943 436.694,22.751 75.309,22.751 75.309,489.304 436.694,489.304 
	436.694,91.813 "/>
<path d="M338.226,92.423c5.28,0,9.561-4.281,9.561-9.561s-4.281-9.561-9.561-9.561H173.778c-5.28,0-9.561,4.281-9.561,9.561
	s4.281,9.561,9.561,9.561H338.226z"/>
<path d="M347.787,389.278c0-5.28-4.281-9.561-9.561-9.561h-90.443c-5.28,0-9.561,4.281-9.561,9.561c0,5.28,4.281,9.561,9.561,9.561
	h90.443C343.506,398.839,347.787,394.559,347.787,389.278z"/>
<path d="M225.474,389.278c0-5.28-4.281-9.561-9.561-9.561h-42.136c-5.28,0-9.561,4.281-9.561,9.561c0,5.28,4.281,9.561,9.561,9.561
	h42.136C221.194,398.839,225.474,394.559,225.474,389.278z"/>
<path d="M218.327,451.106h75.349c5.28,0,9.561-4.281,9.561-9.561s-4.281-9.561-9.561-9.561h-75.349c-5.28,0-9.561,4.281-9.561,9.561
	S213.046,451.106,218.327,451.106z"/>
<path d="M368.889,148.514H210.814c-5.28,0-9.561,4.281-9.561,9.561s4.281,9.561,9.561,9.561h158.075c5.28,0,9.561-4.281,9.561-9.561
	S374.169,148.514,368.889,148.514z"/>
<path d="M133.553,158.075c0,5.28,4.281,9.561,9.561,9.561h35.831c5.28,0,9.561-4.281,9.561-9.561s-4.281-9.561-9.561-9.561h-35.831
	C137.833,148.514,133.553,152.794,133.553,158.075z"/>
<path d="M368.889,253.047h-12.748c-5.28,0-9.561,4.281-9.561,9.561c0,5.28,4.281,9.561,9.561,9.561h12.748
	c5.28,0,9.561-4.281,9.561-9.561C378.45,257.328,374.169,253.047,368.889,253.047z"/>
<path d="M143.114,272.169h181.157c5.28,0,9.561-4.281,9.561-9.561c0-5.28-4.281-9.561-9.561-9.561H143.114
	c-5.28,0-9.561,4.281-9.561,9.561C133.553,267.888,137.833,272.169,143.114,272.169z"/>
<path d="M368.889,200.78H143.114c-5.28,0-9.561,4.281-9.561,9.561c0,5.28,4.281,9.561,9.561,9.561h225.775
	c5.28,0,9.561-4.281,9.561-9.561C378.45,205.061,374.169,200.78,368.889,200.78z"/>
<path d="M378.45,314.875c0-5.28-4.281-9.561-9.561-9.561H143.114c-5.28,0-9.561,4.281-9.561,9.561c0,5.28,4.281,9.561,9.561,9.561
	h225.775C374.169,324.435,378.45,320.155,378.45,314.875z"/>
<path d="M436.694,0c-5.28,0-9.561,4.281-9.561,9.561v3.603h-10.994V9.561c0-5.28-4.281-9.561-9.561-9.561s-9.561,4.281-9.561,9.561
	v3.603h-10.994V9.561c0-5.28-4.281-9.561-9.561-9.561c-5.28,0-9.561,4.281-9.561,9.561v3.603h-10.994V9.561
	c0-5.28-4.281-9.561-9.561-9.561c-5.28,0-9.561,4.281-9.561,9.561v3.603h-10.994V9.561c0-5.28-4.281-9.561-9.561-9.561
	s-9.561,4.281-9.561,9.561v3.603h-10.994V9.561c0-5.28-4.281-9.561-9.561-9.561c-5.28,0-9.561,4.281-9.561,9.561v3.603H265.56V9.561
	c0-5.28-4.281-9.561-9.561-9.561c-5.28,0-9.561,4.281-9.561,9.561v3.603h-10.994V9.561c0-5.28-4.281-9.561-9.561-9.561
	s-9.561,4.281-9.561,9.561v3.603h-10.994V9.561c0-5.28-4.281-9.561-9.561-9.561c-5.28,0-9.561,4.281-9.561,9.561v3.603h-10.994
	V9.561c0-5.28-4.281-9.561-9.561-9.561c-5.28,0-9.561,4.281-9.561,9.561v3.603h-10.994V9.561c0-5.28-4.281-9.561-9.561-9.561
	c-5.28,0-9.561,4.281-9.561,9.561v3.603h-10.994V9.561c0-5.28-4.281-9.561-9.561-9.561c-5.28,0-9.561,4.281-9.561,9.561v3.603
	H84.866V9.561c0-5.28-4.281-9.561-9.561-9.561c-5.28,0-9.561,4.281-9.561,9.561v492.878c0,5.28,4.281,9.561,9.561,9.561
	c5.28,0,9.561-4.281,9.561-9.561v-3.603H95.86v3.603c0,5.28,4.281,9.561,9.561,9.561c5.28,0,9.561-4.281,9.561-9.561v-3.603h10.994
	v3.603c0,5.28,4.281,9.561,9.561,9.561c5.28,0,9.561-4.281,9.561-9.561v-3.603h10.994v3.603c0,5.28,4.281,9.561,9.561,9.561
	c5.28,0,9.561-4.281,9.561-9.561v-3.603h10.994v3.603c0,5.28,4.281,9.561,9.561,9.561c5.28,0,9.561-4.281,9.561-9.561v-3.603h10.994
	v3.603c0,5.28,4.281,9.561,9.561,9.561s9.561-4.281,9.561-9.561v-3.603h10.994v3.603c0,5.28,4.281,9.561,9.561,9.561
	c5.28,0,9.561-4.281,9.561-9.561v-3.603h10.994v3.603c0,5.28,4.281,9.561,9.561,9.561c5.28,0,9.561-4.281,9.561-9.561v-3.603h10.994
	v3.603c0,5.28,4.281,9.561,9.561,9.561s9.561-4.281,9.561-9.561v-3.603h10.994v3.603c0,5.28,4.281,9.561,9.561,9.561
	c5.28,0,9.561-4.281,9.561-9.561v-3.603h10.994v3.603c0,5.28,4.281,9.561,9.561,9.561c5.28,0,9.561-4.281,9.561-9.561v-3.603h10.994
	v3.603c0,5.28,4.281,9.561,9.561,9.561s9.561-4.281,9.561-9.561v-3.603h10.994v3.603c0,5.28,4.281,9.561,9.561,9.561
	c5.28,0,9.561-4.281,9.561-9.561V91.785c0-5.28-4.281-9.561-9.561-9.561c-5.28,0-9.561,4.281-9.561,9.561v387.929H84.869V32.285
	h342.265v27.63c0,5.28,4.281,9.561,9.561,9.561c5.28,0,9.561-4.281,9.561-9.561V9.561C446.255,4.281,441.975,0,436.694,0z"/>
</svg>