<?xml version="1.0" encoding="iso-8859-1"?>
<!-- Uploaded to: SVG Repo, www.svgrepo.com, Generator: SVG Repo Mixer Tools -->
<svg height="800px" width="800px" version="1.1" id="Layer_1" xmlns="http://www.w3.org/2000/svg" xmlns:xlink="http://www.w3.org/1999/xlink" 
	 viewBox="0 0 512 512" xml:space="preserve">
<path style="fill:#FFB7B2;" d="M416.802,301.594c-12.245,0-28.015-1.382-46.268-2.995c-30.054-2.62-67.371-5.879-114.534-5.879
	c-47.155,0-84.463,3.26-114.449,5.871c-18.338,1.613-34.108,3.004-46.353,3.004c-12.663,0-18.048-1.545-19.823-2.048l3.029-10.94
	l-10.991,4.898C65.143,289.51,64,282.931,64,273.946C64,218.044,178.569,192,256,192s192,26.044,192,81.946
	c0,2.995-0.128,5.513-0.324,7.62l8.55,7.074l-15.991,9.19C437.436,299.443,431.949,301.594,416.802,301.594z"/>
<path style="fill:#FFE7E5;" d="M256,499.2c-82.97,0-151.799-79.189-160.102-184.209l-1.041-13.09l13.116-0.7
	c9.651-0.521,20.71-1.485,33.519-2.603c29.986-2.62,67.302-5.879,114.5-5.879c47.206,0,84.523,3.268,114.509,5.879
	c12.8,1.118,23.859,2.082,33.51,2.603l13.116,0.7l-1.041,13.09C407.799,420.011,338.97,499.2,256,499.2z"/>
<path style="fill:#FF877F;" d="M399.846,219.452C363.631,202.513,308.514,192,256,192s-107.631,10.513-143.846,27.452l-13.167,6.153
	l-4.446-13.833c-3.371-10.496-4.941-23.62-4.941-41.267C89.6,67.337,147.14,12.8,256,12.8s166.4,54.537,166.4,157.705
	c0,17.647-1.57,30.763-4.941,41.267l-4.446,13.833L399.846,219.452z"/>
<g>
	<path style="fill:#573A32;" d="M427.759,220.723c4.838-12.407,7.441-28.595,7.441-50.21C435.2,60.646,371.465,0,256,0
		S76.8,60.646,76.8,170.513c0,21.615,2.594,37.803,7.441,50.21C64.06,234.684,51.2,252.279,51.2,273.937
		c0,27.605,9.617,37.53,31.829,39.834C90.914,424.806,165.12,512,256,512s165.086-87.194,172.971-198.229
		c22.204-2.304,31.829-12.228,31.829-39.834C460.8,252.279,447.932,234.684,427.759,220.723z M256,25.6
		c101.922,0,153.6,48.751,153.6,144.913c0,16.657-1.468,28.45-4.326,37.35C363.46,188.314,305.152,179.2,256,179.2
		s-107.46,9.114-149.274,28.663c-2.859-8.9-4.326-20.693-4.326-37.35C102.4,74.351,154.078,25.6,256,25.6z M256,486.4
		c-76.732,0-139.699-75.767-147.345-172.416c32.538-1.732,80.384-8.457,147.345-8.457c66.97,0,114.807,6.724,147.345,8.457
		C395.699,410.633,332.732,486.4,256,486.4z M433.86,286.737c-0.606,0.35-4.215,2.057-17.058,2.057
		c-11.554,0-26.377-1.297-45.15-2.935c-30.242-2.645-67.883-5.931-115.652-5.931c-47.761,0-85.402,3.285-115.644,5.931
		c-18.773,1.638-33.604,2.935-45.158,2.935c-12.595,0-16.307-1.638-16.631-1.638c-0.026,0-0.026,0.009-0.017,0.026
		c-0.017-0.026-1.749-2.884-1.749-13.244c0-40.747,94.438-69.137,179.2-69.137s179.2,28.39,179.2,69.137
		C435.2,283.452,433.732,286.635,433.86,286.737z"/>
	<path style="fill:#573A32;" d="M170.146,124.254c-5.001-5.001-13.099-5.001-18.099,0c-5.001,5.001-5.001,13.099,0,18.099
		c7.475,7.484,17.323,11.221,27.153,11.221c9.83,0,19.678-3.738,27.153-11.221c4.386-4.386,7.415-9.702,9.25-15.454h80.794
		c1.843,5.743,4.864,11.068,9.25,15.454c7.475,7.484,17.323,11.221,27.153,11.221s19.678-3.738,27.153-11.221
		c5.001-5.001,5.001-13.099,0-18.099s-13.099-5.001-18.099,0s-13.099,5.001-18.099,0c-2.432-2.423-3.755-5.641-3.755-9.054
		c0-3.422,1.323-6.622,3.746-9.054c5.001-5.001,13.099-5.001,18.099,0c5.001,5.001,13.099,5.001,18.099,0
		c5.001-5.001,5.001-13.099,0-18.099c-14.95-14.976-39.347-14.959-54.298-0.009c-3.831,3.831-6.682,8.354-8.593,13.261h-82.125
		c-1.903-4.907-4.762-9.429-8.593-13.252c-14.95-14.976-39.347-14.976-54.298,0c-5.001,5.001-5.001,13.099,0,18.099
		c5.001,5.001,13.099,5.001,18.099,0c5.001-4.975,13.099-4.983,18.099,0.009c2.423,2.415,3.746,5.615,3.746,9.037
		c0,3.413-1.323,6.622-3.746,9.054C183.253,129.254,175.147,129.254,170.146,124.254z"/>
</g>
</svg>