<?xml version="1.0" encoding="utf-8"?>
<!-- Uploaded to: SVG Repo, www.svgrepo.com, Generator: SVG Repo Mixer Tools -->
<svg fill="#000000" width="800px" height="800px" viewBox="0 0 32 32" version="1.1" xmlns="http://www.w3.org/2000/svg">
<title>printer</title>
<path d="M0 22.016q0 2.496 1.76 4.224t4.256 1.76v2.016q0 0.832 0.576 1.408t1.408 0.576h16q0.832 0 1.408-0.576t0.608-1.408v-2.016q2.464 0 4.224-1.76t1.76-4.224v-6.016q0-2.464-1.76-4.224t-4.224-1.76v-8q0-0.832-0.608-1.408t-1.408-0.608h-16q-0.832 0-1.408 0.608t-0.576 1.408v8q-2.496 0-4.256 1.76t-1.76 4.224v6.016zM4 24v-1.984q0-1.664 1.184-2.848t2.816-1.152h16q1.664 0 2.816 1.152t1.184 2.848v1.984h-1.984v-1.984q0-0.832-0.608-1.408t-1.408-0.608h-16q-0.832 0-1.408 0.608t-0.576 1.408v1.984h-2.016zM8 30.016v-8h16v8h-16zM8 10.016v-8h16v8h-1.984v-6.016h-12v6.016h-2.016zM12 10.016v-4h8v4h-8zM22.016 16v-1.984h1.984v1.984h-1.984zM26.016 16v-1.984h1.984v1.984h-1.984z"></path>
</svg>